<svg xmlns="http://www.w3.org/2000/svg" viewBox="0 0 200 52">
  <!-- Red accent bar -->
  <rect x="0" y="4" width="6" height="44" fill="#c8102e" rx="3"/>

  <!-- Shoe silhouette icon (white version for dark admin sidebar) -->
  <g transform="translate(13, 2)">
    <ellipse cx="18" cy="44" rx="18" ry="5" fill="#555"/>
    <ellipse cx="18" cy="39" rx="16" ry="3.5" fill="#888"/>
    <path d="M3 36 Q6 20 16 13 Q23 10 32 16 L38 27 L38 36 Z" fill="#c8102e"/>
    <path d="M9 25 Q18 16 29 20 L38 29 L38 36 L9 36 Z" fill="#eeeeee"/>
    <ellipse cx="8" cy="32" rx="8" ry="5" fill="#cccccc"/>
    <line x1="14" y1="17" x2="32" y2="15" stroke="#fff" stroke-width="1.5" stroke-linecap="round"/>
    <line x1="13" y1="21" x2="31" y2="19" stroke="#fff" stroke-width="1.5" stroke-linecap="round"/>
    <line x1="12" y1="26" x2="30" y2="24" stroke="#fff" stroke-width="1.5" stroke-linecap="round"/>
  </g>

  <!-- KICK white -->
  <text x="60" y="31" font-family="Arial Black, Impact, sans-serif" font-size="22" font-weight="900" fill="#ffffff" letter-spacing="1">KICK</text>
  <!-- VAULT red -->
  <text x="60" y="47" font-family="Arial Black, Impact, sans-serif" font-size="16" font-weight="900" fill="#c8102e" letter-spacing="3">VAULT</text>
  <!-- 23 -->
  <text x="184" y="16" font-family="Arial, sans-serif" font-size="10" font-weight="900" fill="#c8102e">23</text>
</svg>
